<svg width="10" height="17" viewBox="0 0 10 17" fill="none" xmlns="http://www.w3.org/2000/svg">
<path d="M6.00486 16.6667H2.91495V9.07877H0.333496V6.10619H2.91495V3.91587C2.88108 3.38661 2.95745 2.85608 3.13923 2.35787C3.32101 1.85966 3.60424 1.4046 3.97099 1.02152C4.34994 0.674377 4.79392 0.405773 5.27729 0.231225C5.76065 0.0566773 6.27381 -0.0203542 6.78712 0.00458166C7.55803 -0.00450749 8.32876 0.0346821 9.09478 0.12192V2.74248L7.49115 2.7816C7.28188 2.75669 7.06973 2.77509 6.86787 2.83564C6.66601 2.8962 6.47877 2.99762 6.31777 3.13361C6.08737 3.43529 5.976 3.81117 6.00486 4.18966V6.10619H8.97744L8.58631 9.07877H6.00486V16.6667Z" fill="white"/>
</svg>
