<svg width="21" height="16" viewBox="0 0 21 16" fill="none" xmlns="http://www.w3.org/2000/svg">
<path d="M18.1195 3.97712V4.48579C18.1173 5.88491 17.8639 7.27177 17.3718 8.57754C16.874 9.91838 16.1543 11.1619 15.2442 12.2539C14.26 13.4119 13.039 14.3352 11.6673 14.9588C10.1541 15.663 8.50766 16.0182 6.8449 15.9993C4.69365 16.015 2.58481 15.3882 0.777832 14.196C1.07923 14.2268 1.39619 14.2423 1.72871 14.2423C3.5163 14.2609 5.25684 13.6575 6.66399 12.5315C5.82012 12.5127 5.00378 12.2213 4.33211 11.6993C3.67379 11.206 3.18935 10.5085 2.9511 9.71091C3.18784 9.77238 3.43115 9.80347 3.67542 9.80346C4.03053 9.8047 4.38309 9.74205 4.71692 9.61837C3.82586 9.44248 3.02415 8.95112 2.45301 8.23084C1.8603 7.5227 1.53863 6.6194 1.54745 5.68786V5.64159C2.10676 5.94617 2.7254 6.11992 3.35857 6.15026C2.8052 5.78979 2.35204 5.28987 2.04277 4.69865C1.73349 4.10743 1.57851 3.44484 1.59276 2.7747C1.58663 2.05838 1.77472 1.3543 2.1362 0.740393C3.12529 1.96776 4.35041 2.97488 5.7358 3.69948C7.14812 4.44186 8.69944 4.86759 10.2859 4.94815C10.2258 4.64375 10.1955 4.33397 10.1956 4.02343C10.1963 2.95676 10.6115 1.93395 11.3501 1.1797C12.0887 0.425444 13.0902 0.00141786 14.1347 0.000761668C14.6764 -0.0101049 15.2143 0.0954089 15.7136 0.310463C16.2128 0.525517 16.6622 0.84531 17.0327 1.24911C17.9242 1.06933 18.7807 0.741284 19.5681 0.278056C19.2771 1.22018 18.6457 2.01377 17.8023 2.49746C18.5961 2.41056 19.3736 2.2081 20.1112 1.89625C19.5666 2.69936 18.8933 3.40287 18.1195 3.97712Z" fill="white"/>
</svg>
