<svg width="290" height="130" viewBox="0 0 290 130" fill="none" xmlns="http://www.w3.org/2000/svg">
<mask id="path-1-inside-1" fill="white">
<path fill-rule="evenodd" clip-rule="evenodd" d="M260 0H0V130H260L290 65L260 0Z"/>
</mask>
<path d="M0 0V-2H-2V0H0ZM260 0L261.816 -0.838116L261.28 -2H260V0ZM0 130H-2V132H0V130ZM260 130V132H261.28L261.816 130.838L260 130ZM290 65L291.816 65.8381L292.203 65L291.816 64.1619L290 65ZM0 2H260V-2H0V2ZM2 130V0H-2V130H2ZM260 128H0V132H260V128ZM288.184 64.1619L258.184 129.162L261.816 130.838L291.816 65.8381L288.184 64.1619ZM258.184 0.838116L288.184 65.8381L291.816 64.1619L261.816 -0.838116L258.184 0.838116Z" fill="#F2C94C" mask="url(#path-1-inside-1)"/>
</svg>
