<?xml version="1.0" standalone="no"?>
<!DOCTYPE svg PUBLIC "-//W3C//DTD SVG 20010904//EN"
 "http://www.w3.org/TR/2001/REC-SVG-20010904/DTD/svg10.dtd">
<svg version="1.0" xmlns="http://www.w3.org/2000/svg"
 width="640.000000pt" height="640.000000pt" viewBox="0 0 640.000000 640.000000"
 preserveAspectRatio="xMidYMid meet">
<metadata>
Created by potrace 1.11, written by Peter Selinger 2001-2013
</metadata>
<g transform="translate(0.000000,640.000000) scale(0.100000,-0.100000)"
fill="#000000" stroke="none">
<path d="M6128 5715 c-2 -2 -23 -6 -48 -9 -40 -6 -208 -40 -252 -51 -10 -3
-28 -7 -40 -10 -79 -17 -578 -182 -663 -219 -37 -16 -98 -40 -105 -42 -8 -1
-42 -16 -100 -42 -30 -14 -61 -25 -67 -25 -7 0 -13 -4 -13 -9 0 -4 -7 -8 -15
-8 -8 0 -23 -4 -33 -9 -9 -5 -80 -38 -157 -72 -245 -110 -237 -105 -258 -174
-120 -394 -312 -653 -600 -813 -82 -46 -158 -75 -169 -64 -11 11 -12 67 -4
137 12 98 17 140 21 165 2 14 7 56 10 94 3 38 7 71 10 74 2 2 -2 17 -10 33
-10 18 -20 26 -30 23 -8 -4 -15 -10 -15 -14 0 -4 -8 -11 -17 -14 -23 -8 -41
-20 -213 -132 -78 -51 -208 -143 -255 -181 -6 -4 -46 -35 -90 -68 -44 -33 -82
-62 -85 -65 -3 -3 -50 -39 -105 -80 -55 -41 -103 -79 -107 -85 -4 -5 -8 -6 -8
-2 0 4 -13 -7 -28 -25 -42 -48 -128 -202 -124 -220 1 -5 -3 -8 -8 -8 -6 0 -10
-4 -10 -9 0 -8 -17 -45 -105 -236 -22 -47 -89 -192 -121 -260 -25 -52 -74
-137 -89 -151 -34 -35 -109 5 -190 101 -22 26 -45 52 -51 59 -25 27 -151 203
-157 220 -7 18 -9 18 -34 -5 -22 -20 -96 -97 -188 -193 -11 -12 -45 -50 -75
-86 -30 -36 -57 -67 -60 -70 -19 -18 -142 -188 -204 -283 -74 -112 -91 -140
-152 -252 -36 -67 -134 -280 -139 -305 -2 -8 -15 -43 -29 -78 -13 -34 -23 -62
-21 -62 3 0 0 -12 -6 -27 -15 -39 -44 -146 -55 -203 -2 -14 -9 -47 -14 -75
-18 -92 -25 -179 -25 -316 l0 -137 -90 -50 c-49 -27 -117 -65 -150 -82 -33
-18 -89 -50 -125 -70 -36 -20 -90 -50 -120 -65 -30 -16 -91 -49 -135 -72 -44
-24 -97 -51 -117 -60 -21 -9 -38 -20 -38 -25 0 -4 -9 -8 -20 -8 -16 0 -20 -7
-21 -37 0 -21 -2 -81 -5 -133 -2 -52 -1 -90 3 -85 5 6 15 11 23 13 32 7 560
267 745 367 202 110 180 103 228 77 42 -22 187 -74 187 -67 0 2 15 -1 33 -6
105 -30 453 -33 592 -5 11 2 43 7 70 11 62 9 79 12 135 25 25 6 57 13 71 16
14 2 72 18 130 35 57 16 111 31 119 34 28 7 145 45 160 52 8 3 17 7 20 7 7 2
94 34 170 63 183 71 606 273 681 324 14 10 29 16 33 12 3 -3 6 -1 6 5 0 7 6
12 14 12 8 0 16 3 18 8 2 4 21 16 43 27 22 11 42 22 45 25 3 3 28 19 55 34 28
16 125 78 217 138 113 74 165 114 161 123 -5 13 -110 58 -198 85 -22 6 -47 14
-55 17 -8 3 -21 8 -27 10 -7 1 -19 5 -25 6 -7 2 -20 6 -28 9 -8 3 -49 16 -90
28 -63 18 -121 37 -240 76 -8 3 -16 5 -18 5 -1 -1 -24 10 -51 24 -46 23 -68
41 -59 50 5 6 55 14 118 20 30 3 71 8 90 10 54 7 144 14 365 30 39 3 93 7 120
10 28 3 88 7 135 10 47 3 105 8 130 10 25 3 77 7 115 10 77 6 143 12 223 21
50 6 58 11 125 79 87 88 197 209 279 307 33 40 64 75 68 78 3 3 60 73 126 155
65 83 124 156 131 163 7 7 13 16 13 20 0 4 12 20 26 37 14 16 34 44 45 62 11
18 25 33 30 33 5 0 9 5 9 11 0 6 14 28 30 49 17 21 30 42 30 48 0 6 4 12 8 14
17 6 182 268 193 306 7 22 6 23 -29 16 -145 -25 -572 -37 -717 -19 -53 6 -115
28 -115 40 0 34 195 125 580 267 30 12 69 26 85 33 17 7 46 18 65 25 19 7 44
16 55 21 11 4 56 22 100 39 196 75 207 84 311 231 124 174 251 404 343 619 38
91 102 257 100 263 -1 1 6 27 16 57 9 30 18 89 20 131 4 67 2 79 -16 95 -11
10 -28 20 -37 22 -20 5 -209 11 -214 7z"/>
</g>
</svg>
